<svg version="1.0" xmlns="http://www.w3.org/2000/svg"
 width="30px" height="30px" viewBox="0 0 512.000000 512.000000"
 preserveAspectRatio="xMidYMid meet">
<g transform="translate(0.000000,512.000000) scale(0.100000,-0.100000)"
fill="currentColor" stroke="none">
<path d="M2315 5109 c-597 -61 -1141 -318 -1563 -739 -1002 -1000 -1002 -2620
0 -3620 407 -405 900 -647 1493 -732 119 -17 512 -16 635 1 573 79 1074 323
1473 717 418 413 663 908 749 1509 17 118 17 512 0 630 -85 593 -327 1088
-734 1495 -393 394 -891 643 -1453 726 -122 18 -477 26 -600 13z m460 -159
c551 -50 1089 -303 1481 -696 374 -376 605 -844 685 -1389 18 -118 18 -492 0
-610 -80 -544 -312 -1014 -685 -1389 -374 -375 -841 -606 -1391 -687 -118 -18
-492 -18 -610 0 -546 80 -1023 317 -1396 692 -188 190 -325 382 -449 631 -332
668 -332 1448 0 2116 242 487 604 849 1092 1091 393 196 837 280 1273 241z"/>
<path d="M1538 3590 c-145 -25 -268 -89 -373 -195 -89 -90 -134 -158 -173
-267 l-27 -73 -3 -465 c-3 -526 -1 -551 68 -688 75 -147 180 -250 327 -318
143 -67 95 -65 1226 -62 l1022 3 85 30 c213 74 372 241 442 465 23 74 23 81
23 535 0 409 -2 467 -18 524 -66 241 -249 425 -493 498 -55 16 -135 18 -1059
19 -550 1 -1021 -2 -1047 -6z m2056 -170 c101 -26 177 -69 251 -145 73 -73
109 -138 135 -241 18 -71 20 -111 20 -473 0 -305 -4 -412 -15 -464 -40 -189
-196 -352 -386 -402 -83 -23 -1998 -22 -2084 0 -175 46 -311 175 -372 354 -22
64 -22 77 -23 501 0 471 2 486 56 599 42 85 154 193 246 236 41 19 97 38 124
43 28 6 456 10 1010 11 928 1 963 0 1038 -19z"/>
<path d="M1803 3190 c-12 -5 -26 -18 -32 -29 -8 -13 -11 -211 -11 -609 l0
-589 23 -21 c23 -21 30 -22 294 -22 250 0 273 1 294 19 31 25 32 83 1 114 -22
21 -31 22 -237 25 l-215 3 0 200 0 199 209 0 c115 0 217 3 226 6 18 7 45 55
45 79 0 9 -13 30 -29 46 l-29 29 -211 0 -211 0 0 200 0 200 209 0 c115 0 217
3 226 6 18 7 45 55 45 79 0 9 -13 30 -29 46 l-29 29 -259 -1 c-142 0 -268 -4
-280 -9z"/>
<path d="M2683 3190 c-12 -5 -26 -18 -32 -29 -8 -13 -11 -211 -11 -609 l0
-589 23 -21 c29 -27 77 -28 108 -3 l24 19 5 401 5 401 195 -391 c107 -216 206
-405 218 -421 31 -37 82 -39 117 -3 l25 24 0 586 0 587 -30 30 c-26 25 -36 29
-63 24 -64 -13 -62 3 -67 -444 l-5 -407 -207 412 c-126 249 -216 418 -230 427
-25 18 -42 19 -75 6z"/>
</g>
</svg>
