<svg version="1.0" xmlns="http://www.w3.org/2000/svg"
 width="30px" height="30px" viewBox="0 0 512.000000 512.000000"
 preserveAspectRatio="xMidYMid meet">

<g transform="translate(0.000000,512.000000) scale(0.100000,-0.100000)"
fill="currentColor" stroke="none">
<path d="M2315 5109 c-597 -61 -1141 -318 -1563 -739 -1002 -1000 -1002 -2620
0 -3620 407 -405 900 -647 1493 -732 119 -17 512 -16 635 1 573 79 1074 323
1473 717 418 413 663 908 749 1509 17 118 17 512 0 630 -85 593 -327 1088
-734 1495 -393 394 -891 643 -1453 726 -122 18 -477 26 -600 13z m460 -159
c551 -50 1089 -303 1481 -696 374 -376 605 -844 685 -1389 18 -118 18 -492 0
-610 -80 -544 -312 -1014 -685 -1389 -374 -375 -841 -606 -1391 -687 -118 -18
-492 -18 -610 0 -546 80 -1023 317 -1396 692 -188 190 -325 382 -449 631 -332
668 -332 1448 0 2116 242 487 604 849 1092 1091 393 196 837 280 1273 241z"/>
<path d="M1538 3590 c-145 -25 -268 -89 -373 -195 -89 -90 -134 -158 -173
-267 l-27 -73 -3 -465 c-3 -526 -1 -551 68 -688 75 -147 180 -250 327 -318
143 -67 95 -65 1226 -62 l1022 3 85 30 c213 74 372 241 442 465 23 74 23 81
23 535 0 409 -2 467 -18 524 -66 241 -249 425 -493 498 -55 16 -135 18 -1059
19 -550 1 -1021 -2 -1047 -6z m2056 -170 c101 -26 177 -69 251 -145 73 -73
109 -138 135 -241 18 -71 20 -111 20 -473 0 -305 -4 -412 -15 -464 -40 -189
-196 -352 -386 -402 -83 -23 -1998 -22 -2084 0 -175 46 -311 175 -372 354 -22
64 -22 77 -23 501 0 471 2 486 56 599 42 85 154 193 246 236 41 19 97 38 124
43 28 6 456 10 1010 11 928 1 963 0 1038 -19z"/>
<path d="M1803 3190 c-12 -5 -26 -18 -32 -29 -8 -13 -11 -211 -11 -609 l0
-589 23 -21 c13 -12 35 -22 49 -22 82 0 88 20 88 315 l0 245 48 0 c41 0 50 -4
59 -22 6 -13 54 -129 108 -258 54 -129 107 -245 118 -257 24 -27 72 -30 104
-8 45 32 40 56 -67 309 -55 131 -100 242 -100 247 0 5 17 17 38 28 115 60 181
199 169 358 -10 134 -72 230 -185 285 -66 33 -68 33 -227 35 -88 2 -170 -2
-182 -7z m361 -183 c56 -43 71 -79 71 -172 0 -146 -55 -195 -220 -195 l-95 0
0 201 0 201 104 -4 c94 -3 106 -6 140 -31z"/>
<path d="M2683 3190 c-12 -5 -26 -18 -32 -29 -7 -13 -11 -164 -11 -448 0 -353
3 -439 15 -488 47 -178 174 -295 331 -303 62 -4 81 0 133 23 71 32 146 107
186 185 50 99 55 149 55 598 l0 414 -30 30 c-26 25 -36 29 -63 24 -64 -13 -62
7 -67 -479 l-5 -442 -33 -68 c-41 -82 -84 -118 -151 -125 -82 -8 -150 47 -190
153 -20 53 -21 73 -21 481 l0 426 -29 29 c-30 30 -50 34 -88 19z"/>
</g>
</svg>
